<svg id="Calque_1" data-name="Calque 1" xmlns="http://www.w3.org/2000/svg" viewBox="0 0 149 120" height="120" width="150"><defs><style>.cls-1{fill:none;}.cls-2{fill:#c59c55;}</style></defs><g id="Rectangle_264" data-name="Rectangle 264"><rect class="cls-1" width="149" height="120"/></g><g id="cargo-truck"><g id="Groupe_16" data-name="Groupe 16"><path id="Tracé_25" data-name="Tracé 25" class="cls-2" d="M122.94,94.46A12.49,12.49,0,1,0,135.43,107h0A12.51,12.51,0,0,0,122.94,94.46Zm0,16.16a3.68,3.68,0,1,1,3.67-3.67,3.67,3.67,0,0,1-3.67,3.67Z" transform="translate(-0.5)"/><path id="Tracé_26" data-name="Tracé 26" class="cls-2" d="M121.74,42.55H100.17a2.94,2.94,0,0,0-2.94,2.94v57.29a2.94,2.94,0,0,0,2.94,2.94h3.12a2.92,2.92,0,0,0,2.93-2.49c1.15-8.83,8.2-14.31,16.72-14.31s15.57,5.48,16.73,14.31a2.92,2.92,0,0,0,2.93,2.49h3.11a2.94,2.94,0,0,0,2.94-2.94V74.13a2.89,2.89,0,0,0-.69-1.88L124,43.6A3,3,0,0,0,121.74,42.55ZM103.11,66.06V51.37a2.93,2.93,0,0,1,2.94-2.94H119a2.92,2.92,0,0,1,2.25,1.06l12.25,14.69A2.95,2.95,0,0,1,131.23,69H106.05a2.94,2.94,0,0,1-2.94-2.94Z" transform="translate(-0.5)"/><path id="Tracé_27" data-name="Tracé 27" class="cls-2" d="M4.68,105.72H12.2a2.91,2.91,0,0,0,2.93-2.49c1.16-8.83,8.2-14.31,16.73-14.31s15.57,5.48,16.72,14.31a2.93,2.93,0,0,0,2.94,2.49h36.9a2.93,2.93,0,0,0,2.93-2.94V29.33a2.94,2.94,0,0,0-2.93-2.94H4.68a2.94,2.94,0,0,0-2.94,2.94h0v73.46A2.94,2.94,0,0,0,4.68,105.72Z" transform="translate(-0.5)"/><path id="Tracé_28" data-name="Tracé 28" class="cls-2" d="M31.86,94.46A12.49,12.49,0,1,0,44.35,107h0A12.51,12.51,0,0,0,31.86,94.46Zm0,16.16A3.68,3.68,0,1,1,35.53,107a3.67,3.67,0,0,1-3.67,3.67Z" transform="translate(-0.5)"/></g></g></svg>
