<svg id="Calque_1" data-name="Calque 1" xmlns="http://www.w3.org/2000/svg" viewBox="0 0 149 120" height="120" width="150"><defs><style>.cls-1{fill:none;}.cls-2{fill:#c59c55;}.cls-3{fill:#fff;}</style></defs><g id="Rectangle_264" data-name="Rectangle 264"><rect class="cls-1" width="149" height="120"/></g><g id="Groupe_19" data-name="Groupe 19"><g id="shopping-cart"><g id="Groupe_18" data-name="Groupe 18"><g id="Groupe_17" data-name="Groupe 17"><circle id="Ellipse_16" data-name="Ellipse 16" class="cls-2" cx="62.81" cy="105" r="13.92"/><path id="Tracé_29" data-name="Tracé 29" class="cls-2" d="M104,91.08h0A13.92,13.92,0,1,0,117.87,105,13.93,13.93,0,0,0,104,91.08Z" transform="translate(-0.5)"/><path id="Tracé_30" data-name="Tracé 30" class="cls-2" d="M127.67,80.66H55.07l-1.42-8.24h59.68a4.25,4.25,0,0,0,4-2.7l14.21-35.8a4.27,4.27,0,0,0-4-5.83H46.26L42.85,8.48a4.26,4.26,0,0,0-4.26-3.55H22.25a4.27,4.27,0,0,0,0,8.53H35L47.25,85.63a4.28,4.28,0,0,0,4.27,3.55h76.15a4.26,4.26,0,1,0,.13-8.52Z" transform="translate(-0.5)"/></g></g></g><ellipse id="Ellipse_17" data-name="Ellipse 17" class="cls-3" cx="62.94" cy="104.89" rx="3.5" ry="4"/><circle id="Ellipse_18" data-name="Ellipse 18" class="cls-3" cx="103.44" cy="104.89" r="4"/></g></svg>
