<svg id="Logo" xmlns="http://www.w3.org/2000/svg" xmlns:xlink="http://www.w3.org/1999/xlink" viewBox="0 0 368.59 117.61" width="370" height="120"><defs><style>.cls-1{fill:url(#Dégradé_sans_nom_8);}.cls-2{fill:url(#Dégradé_sans_nom_8-2);}.cls-3{fill:url(#Dégradé_sans_nom_8-3);}.cls-4{fill:url(#Dégradé_sans_nom_8-4);}.cls-5{fill:url(#Dégradé_sans_nom_8-5);}.cls-6{fill:url(#Dégradé_sans_nom_8-6);}.cls-7{fill:url(#Dégradé_sans_nom_8-7);}.cls-8{fill:url(#Dégradé_sans_nom_8-8);}.cls-9{fill:#353535;}</style><linearGradient id="Dégradé_sans_nom_8" x1="3" y1="116.94" x2="4" y2="116.94" gradientTransform="matrix(117.96, 0, 0, -66.73, -171.46, 7845.62)" gradientUnits="userSpaceOnUse"><stop offset="0" stop-color="#eeeeed"/><stop offset="0" stop-color="#d1c148"/><stop offset="0.52" stop-color="#ba9327"/><stop offset="0.99" stop-color="#d1c148"/></linearGradient><linearGradient id="Dégradé_sans_nom_8-2" x1="2.62" y1="117.56" x2="3.62" y2="117.56" gradientTransform="matrix(145.26, 0, 0, -80.95, -380.08, 9557.94)" xlink:href="#Dégradé_sans_nom_8"/><linearGradient id="Dégradé_sans_nom_8-3" x1="8.39" y1="112.7" x2="9.39" y2="112.7" gradientTransform="matrix(31.91, 0, 0, -30.47, -184.94, 3490.39)" xlink:href="#Dégradé_sans_nom_8"/><linearGradient id="Dégradé_sans_nom_8-4" x1="9.27" y1="115.36" x2="10.27" y2="115.36" gradientTransform="matrix(28.52, 0, 0, -46.18, -154.96, 5374.56)" xlink:href="#Dégradé_sans_nom_8"/><linearGradient id="Dégradé_sans_nom_8-5" x1="30.19" y1="102.37" x2="31.19" y2="102.37" gradientTransform="matrix(8.09, 0, 0, -13.11, -92.05, 1376.61)" xlink:href="#Dégradé_sans_nom_8"/><linearGradient id="Dégradé_sans_nom_8-6" x1="10" y1="114.38" x2="11" y2="114.38" gradientTransform="matrix(26.2, 0, 0, -38.83, 22.43, 4492.91)" xlink:href="#Dégradé_sans_nom_8"/><linearGradient id="Dégradé_sans_nom_8-7" x1="6.93" y1="114.19" x2="7.93" y2="114.19" gradientTransform="matrix(39.81, 0, 0, -37.67, 29.3, 4353.14)" xlink:href="#Dégradé_sans_nom_8"/><linearGradient id="Dégradé_sans_nom_8-8" x1="8.57" y1="114.19" x2="9.57" y2="114.19" gradientTransform="matrix(31.18, 0, 0, -37.67, 71.17, 4353.14)" xlink:href="#Dégradé_sans_nom_8"/></defs><g id="logo-2" data-name="logo"><path id="Tracé_1" data-name="Tracé 1" class="cls-1" d="M294.07,14c-10,7.85-24.9,20.72-33.76,30.53a1.12,1.12,0,0,1-1.83-1.24c3.87-8.08,10.25-17.71,11.12-25.12a1.23,1.23,0,0,0-.07-.57c-3.92-10-19.24,5.84-29.86,18.47a1.12,1.12,0,0,1-1.86-1.21c25.57-52.36-75-14.26-51.95,23.89a1.22,1.22,0,0,0,.2.25C195,68,214.72,60.11,215.94,48.29c.17-2.18-1.5-3.86-3-2.86.37.9,1.14,1.24,1,3-1,11.83-28,20.76-27.77,3.24.81-18,23.44-40,41.48-40.18,6.89,0,9.68,2.66,9.72,8.39a1.07,1.07,0,0,0,0,.25c3.54,12-43.56,64.35-20.21,52.45a1.09,1.09,0,0,0,.52-1.45c-.67-1.29.62-2.48,2.07-5.11C223.38,60.35,256,16.38,263.68,19a1.09,1.09,0,0,1,.72,1.18q-.81,6.46-15.86,32.62l0,.07c-3.37,7.3-13.44,18.22-8.69,18.29,2.28,0,4.23-1.45,5.83-4.35,4.58-9,24.87-28.67,37.27-39.7a1.12,1.12,0,0,1,1.66,1.49c-10,14.27-19.22,27.65-20.32,40.81-.85,8.67,7,7.14,12.23,4.28L286,68.9a1.12,1.12,0,0,0,.34-1.73h0a1.12,1.12,0,0,0-1.37-.26L279.11,70c-29.28,14.89,8.46-38.54,16.77-45.49a.46.46,0,0,0,.07-.07q4.41-4.5,4.41-5.93C300.37,15.21,297.88,9.92,294.07,14Z" transform="translate(-0.96 -0.96)"/><path id="Tracé_2" data-name="Tracé 2" class="cls-2" d="M76.44,5.35c5.89,1.7-4.15,16-13.61,33.7a44.69,44.69,0,0,0,2,5.83C87.1,30.11,113.06,1,138.18,1c3.13-.36,10.92,1.66,7.13,5.28C118.84-.51,87.14,33.74,65.7,46.83c4.61,11,27.71,42,37,28.24-.18-1.19-.34-3.55,1.29-3.8,5.37,4.47-2.53,11.5-8.47,10.55C80,81,68.4,62,62.46,48.77q-5.1,3-8.43,3.24C8.52,111.38-24.48,47.64,27.69,37.94c5-.28,8.86,3.45,7.27,7.68-3-2.42-3.61-6-8.15-5.37-41.37,10.2-18.72,64.7,23,10.37-6.26-6.66,2-18.86,11-16,3-5.9,13.74-23,12.78-27.4C66,10.4,51.49,16.89,49,25.72c-.8,3.61,12.23,2.75,4.59,4.31-8.72,2.46-9.15-4.33-3.38-10.14C55.31,13,73.34,5.21,76.44,5.35ZM58.2,38.86c-4.48-2.44-8.42,4.52-5.46,8Q57.27,40.34,58.2,38.86Zm3.52,8a28.06,28.06,0,0,1-1.21-3.7c-1.23,1.8-2.46,3.55-3.7,5.28,2.11,0,2.22-.26,4.9-1.58Z" transform="translate(-0.96 -0.96)"/><path id="Tracé_3" data-name="Tracé 3" class="cls-3" d="M90.67,71.08c-20.49-3.28,4.74-31.27,15-30.46,15.6,4.2-10.45,21.08-17,18.42-6.66,23.4,20.91.33,26.16-6.85C114.18,59.34,97.83,70.9,90.67,71.08Zm17.5-26.67C102.92,39.86,92.84,52.88,90,57c5.54,1.14,17.24-6.59,18.14-12.59Z" transform="translate(-0.96 -0.96)"/><path id="Tracé_4" data-name="Tracé 4" class="cls-4" d="M113.35,65.24c3.71,8.37,16-4.3,20.27-9.25,3.62-3.8,2.64.14-1.39,3.88-8,9.2-19.5,15.78-22.77,4.31C109.14,56.46,132,14.83,138,26,130.8,37,115.61,52.25,113.35,65.24Z" transform="translate(-0.96 -0.96)"/><path id="Tracé_5" data-name="Tracé 5" class="cls-5" d="M160,31.44c.53,3.6-5,11.14-8.05,10,3-3.94,6.08-5.68,1.48-10.22C153.11,26.9,159.86,28.07,160,31.44Z" transform="translate(-0.96 -0.96)"/><path id="Tracé_6" data-name="Tracé 6" class="cls-6" d="M289.16,70.89c-13.51,0,6.22-37.2,12.78-26.66-19.56,20.85-18.31,37,5.93,12.13,1.37-1.66,2.45-3.1,2.86-1.39C305.59,61.71,298.36,70.34,289.16,70.89ZM308.56,33c3.93,2.91-2.39,7-5,4C299.91,33.71,305.33,30.41,308.56,33Z" transform="translate(-0.96 -0.96)"/><path id="Tracé_7" data-name="Tracé 7" class="cls-7" d="M323.79,68.48c-7.74,4.28-14.81,0-16.2-9.25C296.42,66.1,325.06,39,327.31,37.29c4.62-4.38,7.3-6.95,8.88-2.5-4.67,5.72-7.6,22.08-9.07,29.34,5.58.55,11.42-5.4,17.22-10.93,1,.28.3,1.39-.37,2.22C337.65,64,332,64.22,323.79,68.48Zm-12.5-10.27c-.39,5.58,6.58,9,10.74,6.11,4.26-4.09,5.48-18.89,6.2-24.9C323.9,42.91,311.62,53,311.29,58.21Z" transform="translate(-0.96 -0.96)"/><path id="Tracé_8" data-name="Tracé 8" class="cls-8" d="M357,68.48c-7.74,4.28-14.81,0-16.2-9.25C329.65,66.1,358.3,39,360.54,37.29c4.62-4.38,7.31-6.95,8.89-2.5-4.43,5.41-7.29,20.39-8.83,28.12A8.68,8.68,0,0,1,357,68.48Zm-12.5-10.27c-.39,5.58,6.58,9,10.74,6.11,4.27-4.09,5.48-18.89,6.2-24.9-4.33,3.49-16.6,13.56-16.94,18.79Z" transform="translate(-0.96 -0.96)"/><path id="Tracé_9" data-name="Tracé 9" class="cls-9" d="M79.9,106a4.26,4.26,0,0,1,.94,2.87,4.05,4.05,0,0,1-1.66,3.48,8.4,8.4,0,0,1-4.94,1.22H66.17V96h7.57a7.63,7.63,0,0,1,4.56,1.17,3.9,3.9,0,0,1,1.62,3.34A4.25,4.25,0,0,1,79.2,103a4.37,4.37,0,0,1-2,1.53A4.59,4.59,0,0,1,79.9,106ZM68,97.54v6.37h5.6a5.68,5.68,0,0,0,3.29-.81,3,3,0,0,0,.51-4.23,3.08,3.08,0,0,0-.51-.51,5.69,5.69,0,0,0-3.29-.82Zm9.76,13.7a2.82,2.82,0,0,0,1.2-2.51q0-3.28-4.77-3.29H68V112h6.2a6.48,6.48,0,0,0,3.56-.8Z" transform="translate(-0.96 -0.96)"/><path id="Tracé_10" data-name="Tracé 10" class="cls-9" d="M96.2,107.53h-11a4.72,4.72,0,0,0,1.58,3.32,5.19,5.19,0,0,0,3.61,1.27,5.62,5.62,0,0,0,2.26-.44,4.86,4.86,0,0,0,1.78-1.29l1,1.15a5.59,5.59,0,0,1-2.2,1.61,7.55,7.55,0,0,1-2.9.55,7.31,7.31,0,0,1-3.6-.87,6.16,6.16,0,0,1-2.44-2.39,6.82,6.82,0,0,1-.88-3.47,7.08,7.08,0,0,1,.84-3.46,6,6,0,0,1,2.31-2.38,6.46,6.46,0,0,1,3.3-.86,6.35,6.35,0,0,1,3.29.86,5.91,5.91,0,0,1,2.28,2.37,7.11,7.11,0,0,1,.83,3.47ZM86.63,103a4.78,4.78,0,0,0-1.47,3.17h9.36A4.69,4.69,0,0,0,86.63,103Z" transform="translate(-0.96 -0.96)"/><path id="Tracé_11" data-name="Tracé 11" class="cls-9" d="M108.07,101.57a5,5,0,0,1,1.38,3.82v8.18h-1.71v-2a4.07,4.07,0,0,1-1.76,1.6,6.19,6.19,0,0,1-2.77.58,5.42,5.42,0,0,1-3.52-1.06,3.42,3.42,0,0,1-1.3-2.78,3.38,3.38,0,0,1,1.22-2.7,5.93,5.93,0,0,1,3.88-1h4.18v-.8a3.34,3.34,0,0,0-1-2.6,3.91,3.91,0,0,0-2.78-.9,7.07,7.07,0,0,0-2.41.42,6,6,0,0,0-2,1.14l-.8-1.32a7,7,0,0,1,2.4-1.32,9.64,9.64,0,0,1,3-.47A5.53,5.53,0,0,1,108.07,101.57Zm-2,10a4.08,4.08,0,0,0,1.61-2v-2.15h-4.14c-2.26,0-3.39.78-3.39,2.36a2.13,2.13,0,0,0,.88,1.81,4,4,0,0,0,2.46.67,4.7,4.7,0,0,0,2.58-.69Z" transform="translate(-0.96 -0.96)"/><path id="Tracé_12" data-name="Tracé 12" class="cls-9" d="M126.18,100.38v13.2h-1.7v-2.41a4.82,4.82,0,0,1-1.93,1.87,5.83,5.83,0,0,1-2.81.67,5.12,5.12,0,0,1-5.58-4.6,5.57,5.57,0,0,1,0-1.08v-7.65H116v7.47a4.45,4.45,0,0,0,1,3.17,3.9,3.9,0,0,0,2.94,1.07,4.3,4.3,0,0,0,3.29-1.26,4.9,4.9,0,0,0,1.2-3.53v-6.93Z" transform="translate(-0.96 -0.96)"/><path id="Tracé_13" data-name="Tracé 13" class="cls-9" d="M138.13,112.77a3.38,3.38,0,0,1-1.24.69,5.07,5.07,0,0,1-1.55.24,3.5,3.5,0,0,1-3.86-3.1,3.05,3.05,0,0,1,0-.74v-8h-2.36v-1.51h2.36V97.49h1.78v2.88h4v1.51h-4v7.87a2.47,2.47,0,0,0,.59,1.8,2.2,2.2,0,0,0,1.69.61,3.29,3.29,0,0,0,1.07-.18,2.46,2.46,0,0,0,.89-.5Z" transform="translate(-0.96 -0.96)"/><path id="Tracé_14" data-name="Tracé 14" class="cls-9" d="M152.2,100.38l-6.6,14.77a6.31,6.31,0,0,1-1.85,2.64,4.2,4.2,0,0,1-2.54.78,5.41,5.41,0,0,1-1.78-.3,3.9,3.9,0,0,1-1.43-.9l.82-1.33a3.32,3.32,0,0,0,2.41,1,2.49,2.49,0,0,0,1.54-.5,4.54,4.54,0,0,0,1.2-1.71l.57-1.28-5.9-13.17h1.86l5,11.21,5-11.21Z" transform="translate(-0.96 -0.96)"/><path id="Tracé_15" data-name="Tracé 15" class="cls-9" d="M169.87,101.57a5,5,0,0,1,1.38,3.83v8.18h-1.71v-2.06a4.09,4.09,0,0,1-1.76,1.61,6.18,6.18,0,0,1-2.77.57,5.42,5.42,0,0,1-3.52-1,3.43,3.43,0,0,1-1.3-2.79,3.38,3.38,0,0,1,1.22-2.7,6,6,0,0,1,3.88-1h4.19v-.8a3.36,3.36,0,0,0-1-2.6,3.93,3.93,0,0,0-2.78-.89,7.31,7.31,0,0,0-2.41.41,6,6,0,0,0-2,1.15l-.8-1.33a7,7,0,0,1,2.41-1.32,9.55,9.55,0,0,1,3-.47A5.62,5.62,0,0,1,169.87,101.57Zm-2,10a4.09,4.09,0,0,0,1.6-2v-2.16h-4.14c-2.25,0-3.38.79-3.38,2.36a2.17,2.17,0,0,0,.87,1.82,4,4,0,0,0,2.46.66,4.65,4.65,0,0,0,2.59-.69Z" transform="translate(-0.96 -0.96)"/><path id="Tracé_16" data-name="Tracé 16" class="cls-9" d="M186.77,101.72a5.63,5.63,0,0,1,1.46,4.2v7.65h-1.78v-7.48a4.35,4.35,0,0,0-1-3.13,3.85,3.85,0,0,0-2.93-1.08,4.5,4.5,0,0,0-3.38,1.26,4.81,4.81,0,0,0-1.24,3.5v6.93h-1.78v-13.2h1.71v2.43a4.92,4.92,0,0,1,2-1.87,6.61,6.61,0,0,1,3-.66A5.41,5.41,0,0,1,186.77,101.72Z" transform="translate(-0.96 -0.96)"/><path id="Tracé_17" data-name="Tracé 17" class="cls-9" d="M205.17,95v18.61h-1.7V111a5.44,5.44,0,0,1-2.11,2,6.17,6.17,0,0,1-3,.7,6.72,6.72,0,0,1-3.36-.85,6.13,6.13,0,0,1-2.36-2.38,7.55,7.55,0,0,1,0-7,6,6,0,0,1,2.36-2.37,6.71,6.71,0,0,1,3.36-.84,6.2,6.2,0,0,1,2.9.66,5.45,5.45,0,0,1,2.12,2V95ZM201,111.48a4.57,4.57,0,0,0,1.75-1.82,5.91,5.91,0,0,0,0-5.37,4.57,4.57,0,0,0-1.75-1.82,5.26,5.26,0,0,0-5,0,4.6,4.6,0,0,0-1.76,1.82,6,6,0,0,0,0,5.37,4.53,4.53,0,0,0,1.76,1.82A5.26,5.26,0,0,0,201,111.48Z" transform="translate(-0.96 -0.96)"/><path id="Tracé_18" data-name="Tracé 18" class="cls-9" d="M219.33,97a2.71,2.71,0,0,0-.59,1.86v1.55h4.07v1.51h-4v11.69H217V101.88h-2.35v-1.51H217V98.74a3.62,3.62,0,0,1,4-3.91,5.1,5.1,0,0,1,1.46.21,3.2,3.2,0,0,1,1.17.61L223,97a3,3,0,0,0-1.95-.65A2.35,2.35,0,0,0,219.33,97Z" transform="translate(-0.96 -0.96)"/><path id="Tracé_19" data-name="Tracé 19" class="cls-9" d="M233.55,101.57a5,5,0,0,1,1.38,3.83v8.18h-1.71v-2.06a4.06,4.06,0,0,1-1.77,1.61,6.12,6.12,0,0,1-2.77.57,5.38,5.38,0,0,1-3.51-1,3.43,3.43,0,0,1-1.3-2.79,3.32,3.32,0,0,1,1.22-2.7,6,6,0,0,1,3.87-1h4.19v-.8a3.39,3.39,0,0,0-1-2.6,4,4,0,0,0-2.79-.89,7.25,7.25,0,0,0-2.4.41,6.2,6.2,0,0,0-2,1.15l-.8-1.33a7,7,0,0,1,2.41-1.32,9.64,9.64,0,0,1,3-.47A5.63,5.63,0,0,1,233.55,101.57Zm-2,10a4.11,4.11,0,0,0,1.61-2v-2.16H229c-2.26,0-3.39.79-3.39,2.36a2.14,2.14,0,0,0,.88,1.82,4,4,0,0,0,2.46.66,4.59,4.59,0,0,0,2.58-.69Z" transform="translate(-0.96 -0.96)"/><path id="Tracé_20" data-name="Tracé 20" class="cls-9" d="M240.24,113.24a6.68,6.68,0,0,1-2.3-1.17l.8-1.4a7.08,7.08,0,0,0,2.08,1.07,8.62,8.62,0,0,0,2.61.41,5.07,5.07,0,0,0,2.68-.56A1.82,1.82,0,0,0,247,110a1.42,1.42,0,0,0-.48-1.14,3.22,3.22,0,0,0-1.2-.63,17.88,17.88,0,0,0-1.93-.41,21,21,0,0,1-2.58-.62,3.83,3.83,0,0,1-1.67-1.06,2.93,2.93,0,0,1-.69-2.08,3.21,3.21,0,0,1,1.38-2.7,6.24,6.24,0,0,1,3.84-1.06,10.1,10.1,0,0,1,2.56.33,7.37,7.37,0,0,1,2.1.9l-.77,1.43a6.65,6.65,0,0,0-3.89-1.13,4.56,4.56,0,0,0-2.58.6,1.84,1.84,0,0,0-.86,1.58,1.56,1.56,0,0,0,.49,1.2,3,3,0,0,0,1.22.67,19.84,19.84,0,0,0,2,.44,21.81,21.81,0,0,1,2.54.6,3.69,3.69,0,0,1,1.63,1,2.75,2.75,0,0,1,.67,2,3.16,3.16,0,0,1-1.44,2.75,6.85,6.85,0,0,1-4,1A10.35,10.35,0,0,1,240.24,113.24Z" transform="translate(-0.96 -0.96)"/><path id="Tracé_21" data-name="Tracé 21" class="cls-9" d="M262.72,101.72a5.69,5.69,0,0,1,1.47,4.2v7.65H262.4v-7.48a4.35,4.35,0,0,0-1-3.13,3.85,3.85,0,0,0-2.93-1.08,4.47,4.47,0,0,0-3.38,1.27,4.79,4.79,0,0,0-1.24,3.5v6.92H252V95h1.78v7.73a4.87,4.87,0,0,1,2-1.78,6.61,6.61,0,0,1,2.94-.62A5.35,5.35,0,0,1,262.72,101.72Z" transform="translate(-0.96 -0.96)"/><path id="Tracé_22" data-name="Tracé 22" class="cls-9" d="M269,97.11a1.21,1.21,0,0,1-.37-.9,1.19,1.19,0,0,1,.37-.87,1.26,1.26,0,0,1,.93-.38,1.28,1.28,0,0,1,.93.36,1.2,1.2,0,0,1,.38.87,1.32,1.32,0,0,1-1.33,1.3,1.3,1.3,0,0,1-.91-.37Zm0,3.27h1.79v13.2H269Z" transform="translate(-0.96 -0.96)"/><path id="Tracé_23" data-name="Tracé 23" class="cls-9" d="M277.73,112.83a6.22,6.22,0,0,1-2.4-2.4,7.21,7.21,0,0,1,0-6.92,6.17,6.17,0,0,1,2.4-2.38,7.35,7.35,0,0,1,6.88,0,6.1,6.1,0,0,1,2.4,2.38,7.37,7.37,0,0,1,0,6.92,6.15,6.15,0,0,1-2.4,2.4A7.24,7.24,0,0,1,277.73,112.83Zm6-1.35a4.51,4.51,0,0,0,1.75-1.82,6.1,6.1,0,0,0,0-5.37,4.51,4.51,0,0,0-1.75-1.82,5.3,5.3,0,0,0-5,0,4.6,4.6,0,0,0-1.76,1.82,6,6,0,0,0,0,5.37,4.6,4.6,0,0,0,1.76,1.82,5.3,5.3,0,0,0,5,0Z" transform="translate(-0.96 -0.96)"/><path id="Tracé_24" data-name="Tracé 24" class="cls-9" d="M302.19,101.72a5.63,5.63,0,0,1,1.46,4.2v7.65h-1.78v-7.48a4.35,4.35,0,0,0-1-3.13,3.85,3.85,0,0,0-2.93-1.08,4.5,4.5,0,0,0-3.38,1.26,4.81,4.81,0,0,0-1.24,3.5v6.93h-1.78v-13.2h1.71v2.43a5,5,0,0,1,2-1.87,6.61,6.61,0,0,1,3-.66A5.41,5.41,0,0,1,302.19,101.72Z" transform="translate(-0.96 -0.96)"/><rect id="Rectangle_88" data-name="Rectangle 88" class="cls-9" y="104.29" width="54.77" height="1.48"/><rect id="Rectangle_89" data-name="Rectangle 89" class="cls-9" x="313.82" y="104.29" width="54.77" height="1.48"/></g></svg>
