<svg id="Calque_1" data-name="Calque 1" xmlns="http://www.w3.org/2000/svg" viewBox="0 0 32.59 35.92" height="40" width="40"><defs><style>.cls-1{fill:#4c4c4c;}</style></defs><path id="Icon_simple-email" data-name="Icon simple-email" class="cls-1" d="M36.56,18.4a18.17,18.17,0,0,1-.6,4A11.64,11.64,0,0,1,34.4,26a8.36,8.36,0,0,1-2.65,2.51,7.46,7.46,0,0,1-3.87.95,5.58,5.58,0,0,1-2.79-.69,4.81,4.81,0,0,1-1.89-1.93,6,6,0,0,1-5.07,2.54A5.13,5.13,0,0,1,13.71,27a7.64,7.64,0,0,1-1.1-2.75,12.08,12.08,0,0,1-.15-3.6,16.71,16.71,0,0,1,1.1-4.4,11.67,11.67,0,0,1,2-3.37,8.56,8.56,0,0,1,2.78-2.15,7.8,7.8,0,0,1,3.39-.75,10.6,10.6,0,0,1,2,.17,7.9,7.9,0,0,1,2.87,1.16c.4.25.79.52,1.19.79l-1,11.31a3.66,3.66,0,0,0,0,1.32,1.85,1.85,0,0,0,.4.82,1.5,1.5,0,0,0,.66.42,2.4,2.4,0,0,0,2.3-.45,4.85,4.85,0,0,0,1.24-1.57,9.86,9.86,0,0,0,.82-2.36,16.2,16.2,0,0,0,.37-2.94,18.76,18.76,0,0,0-.46-5.49,10.87,10.87,0,0,0-2-4.25,9.47,9.47,0,0,0-3.65-2.74,13,13,0,0,0-5.31-1A11.78,11.78,0,0,0,16,6.29a12.06,12.06,0,0,0-4,3.17,15.36,15.36,0,0,0-2.61,4.78,21.13,21.13,0,0,0-1.1,6,19.63,19.63,0,0,0,.56,6.06,10.85,10.85,0,0,0,2.22,4.35,9.3,9.3,0,0,0,3.76,2.61,14.32,14.32,0,0,0,5.18.87,17.69,17.69,0,0,0,3.4-.37c.56-.11,1.09-.25,1.6-.39a11.37,11.37,0,0,0,1.38-.5l.71,3.2a7.91,7.91,0,0,1-1.54.77,15,15,0,0,1-1.82.52,17.45,17.45,0,0,1-3.81.43A19.94,19.94,0,0,1,13,36.62,12.62,12.62,0,0,1,7.92,33.3a14,14,0,0,1-3-5.49A23.69,23.69,0,0,1,4,20.18a23.41,23.41,0,0,1,1.46-7.31A18.1,18.1,0,0,1,9,7.06a15.85,15.85,0,0,1,5.36-3.84,16.72,16.72,0,0,1,6.94-1.39A17.58,17.58,0,0,1,28,3,13.23,13.23,0,0,1,32.9,6.42a14,14,0,0,1,2.88,5.24,20.19,20.19,0,0,1,.78,6.74ZM17.28,20.6a7.64,7.64,0,0,0,.4,3.79,2,2,0,0,0,1.95,1.28,2.48,2.48,0,0,0,.67-.12,2.63,2.63,0,0,0,.77-.46,4,4,0,0,0,.78-.95,7.12,7.12,0,0,0,.72-1.59l.77-8.79a4.81,4.81,0,0,0-1.2-.15,4.11,4.11,0,0,0-2,.45,4,4,0,0,0-1.41,1.34,7.63,7.63,0,0,0-.93,2.2,18.07,18.07,0,0,0-.53,3Z" transform="translate(-4 -1.83)"/></svg>
