<svg id="Calque_1" data-name="Calque 1" xmlns="http://www.w3.org/2000/svg" viewBox="0 0 35.71 35.71" height="40" width="40"><defs><style>.cls-1{fill:#4c4c4c;}</style></defs><path id="Icon_awesome-phone" data-name="Icon awesome-phone" class="cls-1" d="M36.63,4.32,29.38,2.64a1.69,1.69,0,0,0-1.92,1l-3.35,7.82a1.67,1.67,0,0,0,.48,2l4.23,3.46A25.85,25.85,0,0,1,16.46,29.2L13,25a1.67,1.67,0,0,0-1.95-.48L3.24,27.84a1.68,1.68,0,0,0-1,1.92L3.93,37a1.68,1.68,0,0,0,1.64,1.3A32.35,32.35,0,0,0,37.93,6h0A1.67,1.67,0,0,0,36.63,4.32Z" transform="translate(-2.22 -2.6)"/></svg>
