<svg id="Calque_1" data-name="Calque 1" xmlns="http://www.w3.org/2000/svg" viewBox="0 0 149 120" height="120" width="150"><defs><style>.cls-1{fill:none;}.cls-2{fill:#c59c55;}</style></defs><g id="Rectangle_264" data-name="Rectangle 264"><rect class="cls-1" width="149" height="120"/></g><path id="Icon_material-assignment-return" data-name="Icon material-assignment-return" class="cls-2" d="M115.23,16.24H91.33a17.09,17.09,0,0,0-32.26,0H35.16A11.46,11.46,0,0,0,23.72,27.68v80.07a11.48,11.48,0,0,0,11.44,11.44h80.07a11.48,11.48,0,0,0,11.44-11.44V27.68A11.46,11.46,0,0,0,115.23,16.24Zm-40,0A5.72,5.72,0,1,1,69.48,22,5.73,5.73,0,0,1,75.2,16.24ZM98.07,84.87H75.2V102L46.6,73.43l28.6-28.6V62H98.07Z" transform="translate(-0.5)"/></svg>
