<svg id="Calque_1" data-name="Calque 1" xmlns="http://www.w3.org/2000/svg" viewBox="0 0 149 120" height="120" width="150"><defs><style>.cls-1{fill:none;}.cls-2{fill:#c59c55;}</style></defs><g id="Rectangle_264" data-name="Rectangle 264"><rect class="cls-1" width="149" height="120"/></g><g id="credit-card"><g id="Groupe_21" data-name="Groupe 21"><g id="Groupe_20" data-name="Groupe 20"><path id="Tracé_31" data-name="Tracé 31" class="cls-2" d="M67.45,41.71V34H21a7.76,7.76,0,0,0-7.75,7.75v15.5H69.08A69.06,69.06,0,0,1,67.45,41.71Z" transform="translate(-0.5)"/></g></g><g id="Groupe_23" data-name="Groupe 23"><g id="Groupe_22" data-name="Groupe 22"><path id="Tracé_32" data-name="Tracé 32" class="cls-2" d="M136.88,72.71c-5.29,8.15-13.35,15.08-24.9,21.71a11.64,11.64,0,0,1-11.55,0c-11.55-6.65-19.61-13.59-24.9-21.73H13.2v38.75A7.75,7.75,0,0,0,21,119.21h108.5a7.76,7.76,0,0,0,7.75-7.75V72.71ZM48.07,96H32.57a3.88,3.88,0,0,1,0-7.75h15.5a3.88,3.88,0,1,1,0,7.75Z" transform="translate(-0.5)"/></g></g><g id="Groupe_25" data-name="Groupe 25"><g id="Groupe_24" data-name="Groupe 24"><path id="Tracé_33" data-name="Tracé 33" class="cls-2" d="M134.85,22.66,107.72,11a3.87,3.87,0,0,0-3.06,0L77.54,22.66a3.84,3.84,0,0,0-2.34,3.55v15.5c0,21.32,7.88,33.78,29.07,46a3.89,3.89,0,0,0,3.85,0c21.19-12.17,29.08-24.64,29.08-46V26.21A3.86,3.86,0,0,0,134.85,22.66Zm-14,17.6-15.5,19.38a4,4,0,0,1-3,1.45h-.17a3.94,3.94,0,0,1-3.06-1.72L91.34,47.74a3.88,3.88,0,0,1,6.46-4.29l4.81,7.21,12.18-15.23a3.88,3.88,0,0,1,6.06,4.83Z" transform="translate(-0.5)"/></g></g></g></svg>
